<svg width="16" height="16" viewBox="0 0 16 16" fill="none" xmlns="http://www.w3.org/2000/svg">
<path d="M15.8576 15.1501L11.6244 10.917C13.8564 8.32224 13.743 4.39242 11.284 1.93345C8.70602 -0.644501 4.51142 -0.644469 1.93347 1.93345C-0.644489 4.51138 -0.644489 8.70604 1.93347 11.284C3.11322 12.4608 4.69338 13.1495 6.35856 13.2126C8.02374 13.2757 9.65147 12.7085 10.9169 11.6242L15.1501 15.8574C15.2442 15.9495 15.3709 16.0007 15.5026 16C15.6343 15.9993 15.7604 15.9466 15.8535 15.8535C15.9466 15.7604 15.9993 15.6343 16 15.5026C16.0007 15.3709 15.9496 15.2443 15.8576 15.1501ZM6.60863 12.2173C5.87179 12.2186 5.14197 12.0743 4.46106 11.7927C3.78014 11.5111 3.16155 11.0979 2.64079 10.5766C0.452917 8.38871 0.452917 4.82874 2.64079 2.64087C4.82866 0.452999 8.38856 0.452999 10.5765 2.64087C12.7644 4.82874 12.7643 8.38871 10.5765 10.5766C10.0558 11.098 9.43723 11.5113 8.75629 11.7929C8.07535 12.0745 7.34548 12.2187 6.60863 12.2173Z" fill="#797979"/>
</svg>
